# xmcd CD database file
#
# Track frame offsets:
#	150
#	24427
#	40552
#	54356
#	67397
#	80783
#	106588
#	137548
#	152701
#	169935
#	185512
#	194457
#	221526
#	255577
#	269251
#	297683
#
# Disc length: 4495 seconds
#
# Revision: 0
# Processed by: cddbd v1.5.2PL0 Copyright (c) Steve Scherf et al.
# Submitted via: CDex 1.70beta2
#
DISCID=ea118d10
DTITLE=Various Artist - 101 Jazz Diamonds CD3
DYEAR=2009
DGENRE=Jazz
TTITLE0=Stan Getz - Ligia
TTITLE1=Gerry Mulligan - Makin' Whoopee
TTITLE2=Sarah Vaughan - Thinking Of You
TTITLE3=Illinois Jaquet - Stella By Starlight
TTITLE4=Ella Fitzgerald - I've Gotta Be Me
TTITLE5=Miles Davis - Milestones
TTITLE6=George Benson - My Latin Brothers
TTITLE7=Duke Ellington - Singin' In The Rain
TTITLE8=The Four Brothers - Four Brothers
TTITLE9=Count Basie - Moon Nocturne
TTITLE10=Fats Waller - Handful Of Keys
TTITLE11=Lionel Hampton and His All Star Alumni Big Band - Hey! Ba-Ba-Re-Bop/Hamp's Boogie Woogie
TTITLE12=James Carter - Sandu
TTITLE13=Coleman Hawkins and His Orchestra - Body And Soul
TTITLE14=Grover Washington Jr. - When I Fall In Love
TTITLE15=Michel Camilo - Dreamlight
EXTD=YEAR: 2009
EXTT0=
EXTT1=
EXTT2=
EXTT3=
EXTT4=
EXTT5=
EXTT6=
EXTT7=
EXTT8=
EXTT9=
EXTT10=
EXTT11=
EXTT12=
EXTT13=
EXTT14=
EXTT15=
PLAYORDER=
